<svg width="94" height="82" viewBox="0 0 94 82" fill="none" xmlns="http://www.w3.org/2000/svg">
<path d="M12.8092 22.518C9.11671 26.9136 0 31.2743 0 39.1215C0 44.2632 0.472368 50.0738 9.09309 54.6553C15.9708 58.3103 14.9032 66.9369 14.9032 66.9369C15.2299 73.2022 20.5716 75.6554 26.9177 76.1573C33.2637 76.6592 37.5098 71.5118 42.7184 76.4686C47.927 81.4254 57.2716 85.8196 64.1578 75.9159C69.6351 68.0389 71.2159 64.7323 81.5997 64.26C94.6843 63.6648 96.6775 49.0448 91.0114 42.7634C90.728 42.45 90.4467 42.1494 90.1661 41.861C84.8199 36.3532 81.0787 35.3976 81.7107 25.5111C82.6642 10.6079 77.0107 3.51272 69.2017 1.16056C60.7581 -1.38385 52.0165 6.92227 45.196 4.42769C37.8768 1.75102 32.4588 -2.38268 24.3211 1.75102C16.5728 5.68632 16.5024 18.1235 12.8092 22.518Z" fill="#F5F5F5"/>
</svg>
